PathFileType	4	(X/Y/Z)	/Users/niels/Desktop/University/Third Semester/Perception and Action/Exam/Gymnastics Motion Tracking/Code for Gym Tracking/Analyzed Data/Webcam_Backflip/id2_2_trajectory_Sports2D/id2_2_trajectory_Sports2D_px_person00.trc
DataRate	CameraRate	NumFrames	NumMarkers	Units	OrigDataRate	OrigDataStartFrame	OrigNumFrames
29.928400954653938	29.928400954653938	12	22	m	29.928400954653938	209	419
Frame#	Time	Hip			RHip			RKnee			RAnkle			RBigToe			RSmallToe			RHeel			LHip			LKnee			LAnkle			LBigToe			LSmallToe			LHeel			Neck			Head			Nose			RShoulder			RElbow			RWrist			LShoulder			LElbow			LWrist		
		X1	Y1	Z1	X2	Y2	Z2	X3	Y3	Z3	X4	Y4	Z4	X5	Y5	Z5	X6	Y6	Z6	X7	Y7	Z7	X8	Y8	Z8	X9	Y9	Z9	X10	Y10	Z10	X11	Y11	Z11	X12	Y12	Z12	X13	Y13	Z13	X14	Y14	Z14	X15	Y15	Z15	X16	Y16	Z16	X17	Y17	Z17	X18	Y18	Z18	X19	Y19	Z19	X20	Y20	Z20	X21	Y21	Z21	X22	Y22	Z22
209	6.983333333333333	0.8567225135146058	-0.47082417270876326	0.0	0.8469401193963109	-0.4658427866047833	0.0	0.8391275665851773	-0.7126831942583812	0.0	0.8052743538959618	-0.9402013192646126	0.0	0.8945400449857351	-0.9787778637564659	0.0	0.8722101872161905	-0.9908069079504513	0.0	0.7814492567689456	-0.97098102698623	0.0	0.8731713278462367	-0.4693447293697652	0.0	0.9068246461954309	-0.7002205880300203	0.0	0.8288524131560757	-0.9004725965453028	0.0	0.9105215355822717	-0.9491016613142326	0.0	0.9013858716568386	-0.9382622079372601	0.0	0.7953113726214602	-0.9304482216893438	0.0	0.9524547466789653	-0.16855478858134776	0.0	1.000916371411247	-0.03468960679798772	0.0	1.0177227973894358	-0.1207062395145067	0.0	0.9372038220895246	-0.19825712537900764	0.0	1.0973981732157456	-0.232684712160132	0.0	1.2440440320244586	-0.21469481651006686	0.0	0.9359467153522101	-0.20812608861441914	0.0	0.9471898301929136	-0.36000662029077607	0.0	0.9897958839506513	-0.4821448979108342	0.0
210	7.016746411483254	0.8623048299626128	-0.4711094435529367	0.0	0.8543977038462229	-0.4662026040704648	0.0	0.8441964436716769	-0.7123997042891153	0.0	0.8063471220094082	-0.9397013929807074	0.0	0.8952957419812442	-0.977355880920329	0.0	0.873357650559124	-0.9894298276515975	0.0	0.7831516465785838	-0.9698737996638371	0.0	0.8772429147073273	-0.46989083629333156	0.0	0.9104035453590521	-0.7018330828139152	0.0	0.8300767314361686	-0.9021118714718372	0.0	0.9119157710246535	-0.9498027847110568	0.0	0.90231558411024	-0.9386647394485003	0.0	0.7949383801138574	-0.930430542680476	0.0	0.9508654446503155	-0.1652539789384335	0.0	0.9999391278486272	-0.03243466782076996	0.0	1.0135500594225668	-0.11738402007886427	0.0	0.9356390909015998	-0.19101398013489407	0.0	1.101147104957303	-0.1936249140612351	0.0	1.2383010307014113	-0.1494674000005472	0.0	0.9350617985508949	-0.20520241862663843	0.0	0.94463889066592	-0.3624846511369634	0.0	0.9885612167022773	-0.4825348539066461	0.0
211	7.050159489633174	0.8680237549230876	-0.4713474079978226	0.0	0.862336065215337	-0.466669319792246	0.0	0.8494245546341208	-0.7117783651904278	0.0	0.8074196399513851	-0.9388669285652227	0.0	0.895750373502257	-0.9753886535449926	0.0	0.8746473775499414	-0.9875927983691212	0.0	0.78515313523286	-0.9684226299034747	0.0	0.8814193491676194	-0.4706348776901074	0.0	0.9151403638098095	-0.7036854292187169	0.0	0.8312607082872078	-0.9044354740261679	0.0	0.9135793018777322	-0.9512571086643596	0.0	0.9031801116567023	-0.9397605031710733	0.0	0.7948194372901841	-0.9309315150997011	0.0	0.9494924438727622	-0.1622431789116396	0.0	1.0001907812684012	-0.03120393411803549	0.0	1.0100986334609035	-0.11457195436499429	0.0	0.9336999912871724	-0.18355968361861752	0.0	1.0975259065187297	-0.15654525403663475	0.0	1.2189192442051069	-0.09175010782306967	0.0	0.9348004194539876	-0.2024138601549266	0.0	0.9440727487968777	-0.3643696765058454	0.0	0.9881953672035946	-0.4829847995923372	0.0
212	7.0835725677830945	0.8734655917840684	-0.4714632784306704	0.0	0.8698533237046708	-0.4669419673370667	0.0	0.8542445817102695	-0.7107769583930843	0.0	0.8083486891792129	-0.9375068191946938	0.0	0.8957745858514853	-0.9731464226038478	0.0	0.875940691648866	-0.9855717020308258	0.0	0.7871226368555269	-0.9664339765690979	0.0	0.8855382440481359	-0.47145304083515766	0.0	0.9206655550918096	-0.7052579714489889	0.0	0.8320107932619183	-0.9067823175673391	0.0	0.9151614834734456	-0.9526726550985589	0.0	0.9038503317712899	-0.9410882689989297	0.0	0.7950082642851082	-0.9317893592543379	0.0	0.9480036350328405	-0.15954228043874571	0.0	1.0005424041044833	-0.031046579537364033	0.0	1.0070472299420041	-0.11202282573171071	0.0	0.9312554946409917	-0.17667416093961313	0.0	1.0876606580589556	-0.12324274944787682	0.0	1.189502245620944	-0.044721735965546086	0.0	0.9345919569264575	-0.20009247683705533	0.0	0.9447351893360272	-0.3651399207577656	0.0	0.9881773721343933	-0.4829887086695205	0.0
213	7.116985645933014	0.8783805036306511	-0.4715080356146329	0.0	0.8762158638363939	-0.467098196769095	0.0	0.8581623818537201	-0.7096228660392357	0.0	0.8091342609371829	-0.9356426995708169	0.0	0.8957574949772993	-0.9709796627880931	0.0	0.8773120899587141	-0.9837301317984917	0.0	0.7888004973407708	-0.9639188905234883	0.0	0.8894745192608645	-0.4721959312475608	0.0	0.926493720820659	-0.7060152134970373	0.0	0.8322051539401789	-0.9083404640218391	0.0	0.9164592705448479	-0.953093777668908	0.0	0.9043095083316106	-0.9418874845470319	0.0	0.7953403237416876	-0.9325560814731806	0.0	0.946099708134866	-0.1571942022365546	0.0	0.9999285305523643	-0.03180740882547987	0.0	1.0040689444196995	-0.10971333794946231	0.0	0.9287405876026077	-0.17127903030216496	0.0	1.073475187953261	-0.09518912338844851	0.0	1.1544178286265603	-0.010138806940259718	0.0	0.933587406505596	-0.19846184063511618	0.0	0.945412770681183	-0.3648812231423791	0.0	0.988119266755129	-0.48213831697127063	0.0
214	7.150398724082935	0.882713373526998	-0.47158744475281444	0.0	0.8810279758369751	-0.46737644340284423	0.0	0.8609146150667822	-0.7086950429843488	0.0	0.8098691921749843	-0.9335589878679892	0.0	0.8963564058887089	-0.9692443884915437	0.0	0.8789740683052697	-0.9823788772229944	0.0	0.7900714754576388	-0.9611465981084841	0.0	0.893425609720167	-0.47277174778020525	0.0	0.9321301283974246	-0.7057671133738891	0.0	0.8321073381714121	-0.9085924803841702	0.0	0.9173543537408575	-0.9521220880007862	0.0	0.9045002134381693	-0.9416986770251099	0.0	0.7956400589656457	-0.9327457684094337	0.0	0.9438654640613956	-0.15532295525038026	0.0	0.997917799729568	-0.033241663782512046	0.0	1.0012155322888117	-0.10772483232405031	0.0	0.9265948110837735	-0.1680614751598188	0.0	1.0571599378698917	-0.07361692286418345	0.0	1.1180540685545604	0.012210943337227729	0.0	0.9318999045740751	-0.19765131204335873	0.0	0.9455863538442515	-0.36401269315169915	0.0	0.987933662311508	-0.4804912995277341	0.0
215	7.183811802232855	0.8864903369459622	-0.47175402330205396	0.0	0.8842977406735587	-0.4678619048041596	0.0	0.8626310957296874	-0.7082018211071844	0.0	0.8105704297465027	-0.931615259394011	0.0	0.8978055449618394	-0.968141855872888	0.0	0.8809541328455105	-0.9816236197225526	0.0	0.7909411375540755	-0.9584646684965134	0.0	0.8976611932363725	-0.47319305060802574	0.0	0.9370788982148521	-0.7046664793960887	0.0	0.8321189679686146	-0.9075721218473534	0.0	0.917774865721755	-0.9501428167420085	0.0	0.9042228204363576	-0.9406414675019503	0.0	0.7959707613147431	-0.9321187383529006	0.0	0.9417641319594788	-0.15404593232220978	0.0	0.9948287801247749	-0.03504451034467849	0.0	0.9989457885994916	-0.10608268434260436	0.0	0.92489569473342	-0.16715474468018995	0.0	1.0406615663166199	-0.05942506722281494	0.0	1.0840878419092979	0.024355813817158473	0.0	0.9306928751510727	-0.19769469533820727	0.0	0.9459483751687979	-0.3630032449122265	0.0	0.9878184260622774	-0.4785986007099261	0.0
216	7.217224880382775	0.8897503196783406	-0.47200168658635644	0.0	0.8863429438973591	-0.4684423984241409	0.0	0.8637415592608637	-0.7080347949002626	0.0	0.8110948603662074	-0.9300710111376175	0.0	0.8996209281835484	-0.967647304070619	0.0	0.8828585901278916	-0.9813526329059717	0.0	0.7914415707155034	-0.9561646287110458	0.0	0.9020962823613172	-0.4735451992047951	0.0	0.9410060638244644	-0.7030634767926152	0.0	0.8324645139498325	-0.9058231089834411	0.0	0.9178430884710269	-0.9479831620344181	0.0	0.9034458431846892	-0.9392464086633051	0.0	0.7965329714065906	-0.9308540297560611	0.0	0.9403082167684202	-0.1533725157348411	0.0	0.9913841676705181	-0.03684811095736706	0.0	0.9977138095568943	-0.10473307730187258	0.0	0.9235384830623236	-0.16804291600705537	0.0	1.0256118724962315	-0.052467432198322485	0.0	1.0551268873512774	0.02927988801310387	0.0	0.9310218614317991	-0.19851758188912594	0.0	0.9474537762136486	-0.3622740388073703	0.0	0.9881194643166028	-0.4771228869170352	0.0
217	7.250637958532695	0.8924940698996042	-0.4723086900283144	0.0	0.8875729854184885	-0.4689780585980018	0.0	0.8646447132240804	-0.7079368711123664	0.0	0.8112988838704405	-0.9290135219045439	0.0	0.9011216529440441	-0.9676042635495541	0.0	0.8841471384593896	-0.9813933026929657	0.0	0.7916011349928574	-0.9544504964432976	0.0	0.9062567767559792	-0.4739181166363869	0.0	0.9439210332450397	-0.7014220594912508	0.0	0.8330920854546274	-0.9040524112446844	0.0	0.9178299254852754	-0.9463905487762614	0.0	0.9024843693533775	-0.9380867403887622	0.0	0.7973081560093317	-0.9294264593410071	0.0	0.9397570953712683	-0.15318179559989545	0.0	0.9882744867366265	-0.03826903062511852	0.0	0.9975277402780851	-0.10359071999280448	0.0	0.9225550493024878	-0.16977971365238143	0.0	1.0134087324283911	-0.05100872581741842	0.0	1.0328289073194066	0.029924314666808643	0.0	0.9329195246957225	-0.19989225600402236	0.0	0.9501377394012094	-0.36212126388745497	0.0	0.9890403823899603	-0.4764318075613679	0.0
218	7.284051036682616	0.8946445017885506	-0.47267723985048987	0.0	0.8883093735195655	-0.469438542613875	0.0	0.8654967637700621	-0.707698958172144	0.0	0.8111925254100729	-0.9283693317253601	0.0	0.901992598709553	-0.967853786805242	0.0	0.8845553968581769	-0.9816582823745698	0.0	0.7914760150469463	-0.9533643782802221	0.0	0.9096515197958811	-0.47438843757049065	0.0	0.946093552412625	-0.7001854159666153	0.0	0.8337595585923936	-0.9027516973616447	0.0	0.9178361044457551	-0.94574265152521	0.0	0.9016844017127436	-0.9375157043694731	0.0	0.7979668091400189	-0.9283022396263464	0.0	0.9400052845249635	-0.1532438346861648	0.0	0.9859125261211036	-0.03897681199292963	0.0	0.9978657266499791	-0.10257108710409472	0.0	0.9220952074303019	-0.17141286434932126	0.0	1.0050914042186392	-0.05232388607680785	0.0	1.0181421319897517	0.0286208144011771	0.0	0.9356007893652084	-0.20142643771763172	0.0	0.9529933377492946	-0.36263494442514427	0.0	0.9904181689723242	-0.4765295344122657	0.0
219	7.317464114832536	0.8961252005933752	-0.4730920439622829	0.0	0.8887203410830289	-0.469825273862694	0.0	0.8662522453648577	-0.7071863780061028	0.0	0.8108671006902071	-0.9280100962488158	0.0	0.9022248198490883	-0.968305647173107	0.0	0.8841010805373678	-0.9821348623155954	0.0	0.7911724962680444	-0.9527601669227552	0.0	0.9120988285653552	-0.47498874864648655	0.0	0.9478858514289346	-0.699611922588809	0.0	0.834166089921576	-0.9020653986620191	0.0	0.9176680796485485	-0.9460590617731574	0.0	0.9011284027762254	-0.9376347351055256	0.0	0.79813425428684	-0.9277430892492933	0.0	0.9407119572383534	-0.15326864788860514	0.0	0.9844643527774496	-0.038696073745494726	0.0	0.9980545874578074	-0.10160217277740896	0.0	0.9221788609988275	-0.17227595795292763	0.0	1.0012314792239507	-0.05382246543305304	0.0	1.0113845043131204	0.02708619351623201	0.0	0.9382380968581672	-0.20263064233983438	0.0	0.9548259077629719	-0.3636680188346621	0.0	0.9918487380055171	-0.47721934418183193	0.0
220	7.350877192982456	0.8969387418256326	-0.47342214869275323	0.0	0.8888667844211906	-0.4700270546113036	0.0	0.8667970099258491	-0.7063691957319013	0.0	0.8103839445038211	-0.9278658250026101	0.0	0.901834031172994	-0.9689455882904403	0.0	0.8828831808409022	-0.9827948294750171	0.0	0.7907970054725232	-0.9524651571904943	0.0	0.9136517935796673	-0.47564513380977386	0.0	0.9496105418731943	-0.6997154976519441	0.0	0.8341136915786105	-0.9018815986498089	0.0	0.917099833912223	-0.9471296304971912	0.0	0.900697465683394	-0.9383727266552899	0.0	0.7976499307205329	-0.9277668150882092	0.0	0.9415893926677696	-0.15299742164901403	0.0	0.9839994927894042	-0.037191577131833256	0.0	0.9977409328438485	-0.10063052519692282	0.0	0.9226734606658475	-0.17203759018109668	0.0	1.002023757439053	-0.05376683968319973	0.0	1.0122332799043452	0.026439639134008996	0.0	0.9403282416234392	-0.20305340242710002	0.0	0.9550830563567687	-0.3648773761547162	0.0	0.9929808520739353	-0.4782137144704241	0.0
